<svg width="32" height="32" viewBox="0 0 32 32" fill="none" xmlns="http://www.w3.org/2000/svg">
<path d="M9.3081 6C10.2301 6 11.0819 6.07025 11.8634 6.281C12.645 6.4215 13.286 6.71128 13.8568 7.06253C14.4276 7.41378 14.8491 7.91431 15.1388 8.55534C15.4198 9.19637 15.5691 9.97789 15.5691 10.8297C15.5691 11.822 15.3584 12.6737 14.8578 13.3148C14.4276 13.9558 13.7251 14.5266 12.8645 14.9481C14.0763 15.2993 14.9983 15.9403 15.5603 16.7921C16.1223 17.6439 16.4824 18.7064 16.4824 19.9182C16.4824 20.9105 16.2716 21.7623 15.9116 22.4736C15.5603 23.1849 14.9896 23.8259 14.3485 24.2474C13.7075 24.6777 12.926 25.0289 12.0742 25.2397C11.2224 25.4504 10.3706 25.5909 9.51885 25.5909L0 25.6085V6H9.3081ZM8.73732 13.9558C9.51885 13.9558 10.1599 13.745 10.6516 13.385C11.1434 13.025 11.3629 12.3927 11.3629 11.6112C11.3629 11.1809 11.2927 10.7594 11.1522 10.4784C11.0117 10.1974 10.8009 9.9779 10.5111 9.76715C10.2301 9.62665 9.94035 9.48615 9.5891 9.4159C9.23785 9.34565 8.87782 9.34565 8.45632 9.34565H4.33793V13.9646C4.33793 13.9558 8.73732 13.9558 8.73732 13.9558ZM8.94807 22.3419C9.37835 22.3419 9.79985 22.2716 10.1599 22.2014C10.5111 22.1311 10.8712 21.9906 11.1522 21.7711C11.4332 21.5516 11.6527 21.3408 11.8634 20.9896C12.0039 20.6383 12.1444 20.208 12.1444 19.7075C12.1444 18.7152 11.8634 18.0039 11.2927 17.5034C10.7219 17.0731 9.94035 16.8624 9.01832 16.8624H4.33793V22.3331H8.94807V22.3419Z" fill="white"/>
<path d="M22.6643 22.2716C23.2351 22.8424 24.0869 23.1234 25.2197 23.1234C26.0012 23.1234 26.7125 22.9126 27.2833 22.5526C27.854 22.1223 28.2053 21.7008 28.3458 21.2706H31.8232C31.2524 22.9741 30.4006 24.1859 29.2678 24.9675C28.135 25.6787 26.7827 26.1002 25.1494 26.1002C24.0167 26.1002 23.0156 25.8895 22.0936 25.5294C21.1715 25.1782 20.4603 24.6777 19.8192 23.9664C19.1782 23.3254 18.6864 22.5438 18.3967 21.6218C18.0454 20.6998 17.8961 19.7075 17.8961 18.5659C17.8961 17.5034 18.0366 16.5023 18.3967 15.5803C18.7567 14.6583 19.2484 13.8768 19.8895 13.1655C20.5305 12.5245 21.312 11.9537 22.1638 11.6024C23.0858 11.2512 24.0079 11.0316 25.1494 11.0316C26.3612 11.0316 27.4238 11.2424 28.3458 11.7429C29.2678 12.2435 29.9791 12.8055 30.5499 13.6572C31.1207 14.4388 31.5422 15.3608 31.8319 16.3531C31.9724 17.3453 32.0427 18.3464 31.9724 19.4792H21.6721C21.6721 20.6383 22.0936 21.7008 22.6643 22.2716ZM27.1428 14.8076C26.6422 14.307 25.8607 14.026 24.9387 14.026C24.2977 14.026 23.8059 14.1665 23.3756 14.3773C22.9453 14.588 22.6643 14.8778 22.3833 15.1588C22.1023 15.4398 21.9531 15.7999 21.8828 16.1511C21.8126 16.5023 21.7423 16.7921 21.7423 17.0731H28.135C27.9945 16.0194 27.6345 15.3081 27.1428 14.8076ZM20.8905 7.35231H28.8463V9.26662H20.8905V7.35231Z" fill="white"/>
</svg>
