<svg width="30" height="30" viewBox="0 0 30 30" fill="none" xmlns="http://www.w3.org/2000/svg">
<path fill-rule="evenodd" clip-rule="evenodd" d="M0 0H1.875V28.125H30V30H0V0ZM18.75 6.5625C18.75 6.04473 19.1697 5.625 19.6875 5.625H27.1875C27.7053 5.625 28.125 6.04473 28.125 6.5625V14.0625C28.125 14.5803 27.7053 15 27.1875 15C26.6697 15 26.25 14.5803 26.25 14.0625V9.18882L19.4756 17.4687C19.3079 17.6737 19.0612 17.7981 18.7967 17.8113C18.5322 17.8245 18.2744 17.7252 18.0871 17.5379L13.2379 12.6887L6.38319 22.1139C6.07865 22.5326 5.49233 22.6252 5.07359 22.3207C4.65485 22.0162 4.56227 21.4298 4.86681 21.0111L12.3668 10.6986C12.5281 10.4768 12.7783 10.3368 13.0517 10.3154C13.325 10.2939 13.594 10.3932 13.7879 10.5871L18.6804 15.4796L25.2091 7.5H19.6875C19.1697 7.5 18.75 7.08027 18.75 6.5625Z" fill="url(#paint0_linear_114_108)"/>
<defs>
<linearGradient id="paint0_linear_114_108" x1="15" y1="0" x2="15" y2="30" gradientUnits="userSpaceOnUse">
<stop stop-color="#D16020"/>
<stop offset="1" stop-color="#BE2626"/>
</linearGradient>
</defs>
</svg>
