<svg width="45" height="45" viewBox="0 0 45 45" fill="none" xmlns="http://www.w3.org/2000/svg">
<circle cx="42.5" cy="2.5" r="2.5" transform="rotate(90 42.5 2.5)" fill="white" fill-opacity="0.2"/>
<circle cx="32.5" cy="2.5" r="2.5" transform="rotate(90 32.5 2.5)" fill="white" fill-opacity="0.2"/>
<circle cx="22.5" cy="2.5" r="2.5" transform="rotate(90 22.5 2.5)" fill="white" fill-opacity="0.2"/>
<circle cx="12.5" cy="2.5" r="2.5" transform="rotate(90 12.5 2.5)" fill="white" fill-opacity="0.2"/>
<circle cx="2.5" cy="2.5" r="2.5" transform="rotate(90 2.5 2.5)" fill="white" fill-opacity="0.2"/>
<circle cx="42.5" cy="12.5" r="2.5" transform="rotate(90 42.5 12.5)" fill="white" fill-opacity="0.2"/>
<circle cx="22.5" cy="12.5" r="2.5" transform="rotate(90 22.5 12.5)" fill="white" fill-opacity="0.2"/>
<circle cx="32.5" cy="12.5" r="2.5" transform="rotate(90 32.5 12.5)" fill="white" fill-opacity="0.2"/>
<circle cx="12.5" cy="12.5" r="2.5" transform="rotate(90 12.5 12.5)" fill="white" fill-opacity="0.2"/>
<circle cx="2.5" cy="12.5" r="2.5" transform="rotate(90 2.5 12.5)" fill="white" fill-opacity="0.2"/>
<circle cx="42.5" cy="22.5" r="2.5" transform="rotate(90 42.5 22.5)" fill="white" fill-opacity="0.2"/>
<circle cx="32.5" cy="22.5" r="2.5" transform="rotate(90 32.5 22.5)" fill="white" fill-opacity="0.2"/>
<circle cx="22.5" cy="22.5" r="2.5" transform="rotate(90 22.5 22.5)" fill="white" fill-opacity="0.2"/>
<circle cx="12.5" cy="22.5" r="2.5" transform="rotate(90 12.5 22.5)" fill="white" fill-opacity="0.2"/>
<circle cx="42.5" cy="32.5" r="2.5" transform="rotate(90 42.5 32.5)" fill="white" fill-opacity="0.2"/>
<circle cx="32.5" cy="32.5" r="2.5" transform="rotate(90 32.5 32.5)" fill="white" fill-opacity="0.2"/>
<circle cx="22.5" cy="32.5" r="2.5" transform="rotate(90 22.5 32.5)" fill="white" fill-opacity="0.2"/>
<circle cx="12.5" cy="32.5" r="2.5" transform="rotate(90 12.5 32.5)" fill="white" fill-opacity="0.2"/>
<circle cx="42.5" cy="42.5" r="2.5" transform="rotate(90 42.5 42.5)" fill="white" fill-opacity="0.2"/>
<circle cx="32.5" cy="42.5" r="2.5" transform="rotate(90 32.5 42.5)" fill="white" fill-opacity="0.2"/>
</svg>
