<svg width="28" height="30" viewBox="0 0 28 30" fill="none" xmlns="http://www.w3.org/2000/svg">
<path d="M9.375 23.4375C9.375 24.9908 8.1158 26.25 6.5625 26.25C5.0092 26.25 3.75 24.9908 3.75 23.4375C3.75 22.2129 4.53263 21.1711 5.625 20.785V4.6875C5.625 4.16973 6.04473 3.75 6.5625 3.75C7.08027 3.75 7.5 4.16973 7.5 4.6875V20.785C8.59237 21.1711 9.375 22.2129 9.375 23.4375Z" fill="url(#paint0_linear_135_109)"/>
<path d="M1.875 4.6875C1.875 2.09867 3.97366 0 6.5625 0C9.15133 0 11.25 2.09866 11.25 4.6875V18.8447C12.4088 20.0274 13.125 21.6494 13.125 23.4375C13.125 27.0619 10.1869 30 6.5625 30C2.93813 30 0 27.0619 0 23.4375C0 21.6494 0.716177 20.0274 1.875 18.8447V4.6875ZM6.5625 1.875C5.0092 1.875 3.75 3.1342 3.75 4.6875V19.6639L3.43773 19.9434C2.47725 20.803 1.875 22.0493 1.875 23.4375C1.875 26.0263 3.97366 28.125 6.5625 28.125C9.15134 28.125 11.25 26.0263 11.25 23.4375C11.25 22.0493 10.6477 20.803 9.68727 19.9434L9.375 19.6639V4.6875C9.375 3.1342 8.1158 1.875 6.5625 1.875Z" fill="url(#paint1_linear_135_109)"/>
<path d="M15.9375 3.75C16.4553 3.75 16.875 4.16973 16.875 4.6875V6.5625C16.875 7.08027 16.4553 7.5 15.9375 7.5C15.4197 7.5 15 7.08027 15 6.5625V4.6875C15 4.16973 15.4197 3.75 15.9375 3.75ZM23.8925 7.04502C24.2586 7.41114 24.2586 8.00473 23.8925 8.37085L22.5666 9.69667C22.2005 10.0628 21.6069 10.0628 21.2408 9.69667C20.8747 9.33056 20.8747 8.73697 21.2408 8.37085L22.5666 7.04502C22.9327 6.67891 23.5263 6.67891 23.8925 7.04502ZM15 10.3125C15 9.79471 15.4198 9.37498 15.9375 9.37498C19.0441 9.37498 21.5625 11.8934 21.5625 15C21.5625 18.1066 19.0441 20.625 15.9375 20.625C15.4198 20.625 15 20.2052 15 19.6875C15 19.1697 15.4198 18.75 15.9375 18.75C18.0086 18.75 19.6875 17.071 19.6875 15C19.6875 12.9289 18.0086 11.25 15.9375 11.25C15.4198 11.25 15 10.8302 15 10.3125ZM23.4375 15C23.4375 14.4822 23.8573 14.0625 24.375 14.0625H26.25C26.7678 14.0625 27.1875 14.4822 27.1875 15C27.1875 15.5177 26.7678 15.9375 26.25 15.9375H24.375C23.8573 15.9375 23.4375 15.5177 23.4375 15ZM21.2408 20.3033C21.6069 19.9372 22.2005 19.9372 22.5666 20.3033L23.8925 21.6291C24.2586 21.9952 24.2586 22.5888 23.8925 22.9549C23.5264 23.321 22.9328 23.321 22.5666 22.9549L21.2408 21.6291C20.8747 21.263 20.8747 20.6694 21.2408 20.3033ZM15.9375 22.5C16.4553 22.5 16.875 22.9197 16.875 23.4375V25.3125C16.875 25.8303 16.4553 26.25 15.9375 26.25C15.4197 26.25 15 25.8303 15 25.3125V23.4375C15 22.9197 15.4197 22.5 15.9375 22.5Z" fill="url(#paint2_linear_135_109)"/>
<defs>
<linearGradient id="paint0_linear_135_109" x1="13.5938" y1="0" x2="13.5938" y2="30" gradientUnits="userSpaceOnUse">
<stop stop-color="#D16020"/>
<stop offset="1" stop-color="#BE2626"/>
</linearGradient>
<linearGradient id="paint1_linear_135_109" x1="13.5938" y1="0" x2="13.5938" y2="30" gradientUnits="userSpaceOnUse">
<stop stop-color="#D16020"/>
<stop offset="1" stop-color="#BE2626"/>
</linearGradient>
<linearGradient id="paint2_linear_135_109" x1="13.5938" y1="0" x2="13.5938" y2="30" gradientUnits="userSpaceOnUse">
<stop stop-color="#D16020"/>
<stop offset="1" stop-color="#BE2626"/>
</linearGradient>
</defs>
</svg>
