<svg width="32" height="32" viewBox="0 0 32 32" fill="none" xmlns="http://www.w3.org/2000/svg">
<path d="M6.2 1.4C6.38885 1.14819 6.68524 1 7 1H25C25.315 1 25.6115 1.1484 25.8004 1.4005L31.7526 9.34719C32.0499 9.71726 32.064 10.2479 31.7735 10.6354L16.8 30.6C16.6111 30.8518 16.3148 31 16 31C15.6852 31 15.3889 30.8518 15.2 30.6L0.2 10.6C-0.0666667 10.2444 -0.0666667 9.75556 0.2 9.4L6.2 1.4ZM28.9719 8.97083L25.3598 4.14845L23.808 8.97622L28.9719 8.97083ZM21.7066 8.97841L23.6282 3H8.37182L10.2973 8.9903L21.7066 8.97841ZM10.9399 10.9896L16 26.7321L21.0635 10.9791L10.9399 10.9896ZM8.1972 8.99249L6.63973 4.14703L3.00157 8.99791L8.1972 8.99249ZM2.99844 10.9979L13.2243 24.6324L8.83984 10.9918L2.99844 10.9979ZM18.7757 24.6324L29.0219 10.9708L23.165 10.9769L18.7757 24.6324Z" fill="url(#paint0_linear_60_53)"/>
<defs>
<linearGradient id="paint0_linear_60_53" x1="15.9918" y1="1" x2="15.9918" y2="31" gradientUnits="userSpaceOnUse">
<stop stop-color="#6FB1D7"/>
<stop offset="1" stop-color="#DA83F9"/>
</linearGradient>
</defs>
</svg>
