<svg width="32" height="32" viewBox="0 0 32 32" fill="none" xmlns="http://www.w3.org/2000/svg">
<path d="M16.4229 4.09382C16.1548 3.96873 15.8452 3.96873 15.5771 4.09382L0.577117 11.0938C0.215828 11.2624 -0.0107901 11.6295 0.000395988 12.0281C0.011582 12.4266 0.258434 12.7804 0.628612 12.9285L15.6286 18.9285C15.867 19.0238 16.133 19.0238 16.3714 18.9285L28 14.277V26C26.8954 26 26 26.8954 26 28V32H32V28C32 26.8954 31.1046 26 30 26V13.477L31.3714 12.9285C31.7416 12.7804 31.9884 12.4266 31.9996 12.0281C32.0108 11.6295 31.7842 11.2624 31.4229 11.0938L16.4229 4.09382ZM16 16.923L3.51604 11.9294L16 6.10353L28.484 11.9294L16 16.923Z" fill="url(#paint0_linear_60_44)"/>
<path d="M8.35113 18.0637C8.09098 17.9661 7.80197 17.9812 7.55338 18.1053C7.30479 18.2294 7.11903 18.4513 7.04064 18.7178L6.04064 22.1178C5.89511 22.6126 6.14975 23.1369 6.62861 23.3285L15.6286 26.9285C15.867 27.0238 16.133 27.0238 16.3714 26.9285L25.3714 23.3285C25.8503 23.1369 26.1049 22.6126 25.9594 22.1178L24.9594 18.7178C24.881 18.4513 24.6952 18.2294 24.4466 18.1053C24.198 17.9812 23.909 17.9661 23.6489 18.0637L16 20.932L8.35113 18.0637ZM8.21607 21.8094L8.6559 20.314L15.6489 22.9363C15.8753 23.0212 16.1247 23.0212 16.3511 22.9363L23.3441 20.314L23.7839 21.8094L16 24.923L8.21607 21.8094Z" fill="url(#paint1_linear_60_44)"/>
<defs>
<linearGradient id="paint0_linear_60_44" x1="16" y1="4" x2="16" y2="32" gradientUnits="userSpaceOnUse">
<stop stop-color="#6FB1D7"/>
<stop offset="1" stop-color="#DA83F9"/>
</linearGradient>
<linearGradient id="paint1_linear_60_44" x1="16" y1="4" x2="16" y2="32" gradientUnits="userSpaceOnUse">
<stop stop-color="#6FB1D7"/>
<stop offset="1" stop-color="#DA83F9"/>
</linearGradient>
</defs>
</svg>
